<?xml version="1.0" encoding="UTF-8" standalone="no"?>
<!DOCTYPE svg PUBLIC "-//W3C//DTD SVG 1.1//EN"
 "http://www.w3.org/Graphics/SVG/1.1/DTD/svg11.dtd">
<!-- Generated by graphviz version 2.38.0 (20140413.2041)
 -->
<!-- Title: %3 Pages: 1 -->
<svg width="974pt" height="548pt"
 viewBox="0.00 0.00 974.24 548.00" xmlns="http://www.w3.org/2000/svg" xmlns:xlink="http://www.w3.org/1999/xlink">
<g id="graph0" class="graph" transform="scale(1 1) rotate(0) translate(4 544)">
<title>%3</title>
<polygon fill="white" stroke="none" points="-4,4 -4,-544 970.24,-544 970.24,4 -4,4"/>
<!-- [root] aws_instance.wb -->
<g id="node1" class="node"><title>[root] aws_instance.wb</title>
<polygon fill="none" stroke="black" points="405.24,-396 296.24,-396 296.24,-360 405.24,-360 405.24,-396"/>
<text text-anchor="middle" x="350.74" y="-374.3" font-family="Times,serif" font-size="14.00">aws_instance.wb</text>
</g>
<!-- [root] aws_security_group.sgweb -->
<g id="node5" class="node"><title>[root] aws_security_group.sgweb</title>
<polygon fill="none" stroke="black" points="484.74,-252 320.74,-252 320.74,-216 484.74,-216 484.74,-252"/>
<text text-anchor="middle" x="402.74" y="-230.3" font-family="Times,serif" font-size="14.00">aws_security_group.sgweb</text>
</g>
<!-- [root] aws_instance.wb&#45;&gt;[root] aws_security_group.sgweb -->
<g id="edge1" class="edge"><title>[root] aws_instance.wb&#45;&gt;[root] aws_security_group.sgweb</title>
<path fill="none" stroke="black" d="M371.68,-359.572C381.44,-350.144 392.118,-337.645 397.74,-324 405.784,-304.475 406.673,-280.479 405.75,-262.325"/>
<polygon fill="black" stroke="black" points="409.225,-261.851 405.013,-252.129 402.243,-262.356 409.225,-261.851"/>
</g>
<!-- [root] aws_subnet.public&#45;subnet -->
<g id="node6" class="node"><title>[root] aws_subnet.public&#45;subnet</title>
<polygon fill="none" stroke="black" points="616.24,-324 459.24,-324 459.24,-288 616.24,-288 616.24,-324"/>
<text text-anchor="middle" x="537.74" y="-302.3" font-family="Times,serif" font-size="14.00">aws_subnet.public&#45;subnet</text>
</g>
<!-- [root] aws_instance.wb&#45;&gt;[root] aws_subnet.public&#45;subnet -->
<g id="edge2" class="edge"><title>[root] aws_instance.wb&#45;&gt;[root] aws_subnet.public&#45;subnet</title>
<path fill="none" stroke="black" d="M396.485,-359.876C422.504,-350.137 455.266,-337.872 482.687,-327.608"/>
<polygon fill="black" stroke="black" points="484.005,-330.852 492.143,-324.068 481.551,-324.296 484.005,-330.852"/>
</g>
<!-- [root] var.ami -->
<g id="node9" class="node"><title>[root] var.ami</title>
<ellipse fill="none" stroke="black" cx="155.74" cy="-306" rx="60.3893" ry="18"/>
<text text-anchor="middle" x="155.74" y="-302.3" font-family="Times,serif" font-size="14.00">[root] var.ami</text>
</g>
<!-- [root] aws_instance.wb&#45;&gt;[root] var.ami -->
<g id="edge3" class="edge"><title>[root] aws_instance.wb&#45;&gt;[root] var.ami</title>
<path fill="none" stroke="black" d="M303.038,-359.876C272.413,-348.883 232.829,-334.673 202.409,-323.753"/>
<polygon fill="black" stroke="black" points="203.472,-320.416 192.878,-320.332 201.107,-327.004 203.472,-320.416"/>
</g>
<!-- [root] var.key_pair -->
<g id="node10" class="node"><title>[root] var.key_pair</title>
<ellipse fill="none" stroke="black" cx="311.74" cy="-306" rx="77.1866" ry="18"/>
<text text-anchor="middle" x="311.74" y="-302.3" font-family="Times,serif" font-size="14.00">[root] var.key_pair</text>
</g>
<!-- [root] aws_instance.wb&#45;&gt;[root] var.key_pair -->
<g id="edge4" class="edge"><title>[root] aws_instance.wb&#45;&gt;[root] var.key_pair</title>
<path fill="none" stroke="black" d="M341.099,-359.697C336.613,-351.644 331.181,-341.894 326.216,-332.982"/>
<polygon fill="black" stroke="black" points="329.194,-331.137 321.269,-324.104 323.079,-334.544 329.194,-331.137"/>
</g>
<!-- [root] aws_internet_gateway.gw&#45;gw -->
<g id="node2" class="node"><title>[root] aws_internet_gateway.gw&#45;gw</title>
<polygon fill="none" stroke="black" points="966.24,-252 787.24,-252 787.24,-216 966.24,-216 966.24,-252"/>
<text text-anchor="middle" x="876.74" y="-230.3" font-family="Times,serif" font-size="14.00">aws_internet_gateway.gw&#45;gw</text>
</g>
<!-- [root] aws_vpc.my_vpc -->
<g id="node7" class="node"><title>[root] aws_vpc.my_vpc</title>
<polygon fill="none" stroke="black" points="568.74,-180 456.74,-180 456.74,-144 568.74,-144 568.74,-180"/>
<text text-anchor="middle" x="512.74" y="-158.3" font-family="Times,serif" font-size="14.00">aws_vpc.my_vpc</text>
</g>
<!-- [root] aws_internet_gateway.gw&#45;gw&#45;&gt;[root] aws_vpc.my_vpc -->
<g id="edge5" class="edge"><title>[root] aws_internet_gateway.gw&#45;gw&#45;&gt;[root] aws_vpc.my_vpc</title>
<path fill="none" stroke="black" d="M788.161,-215.966C723.508,-203.532 637.277,-186.949 578.642,-175.674"/>
<polygon fill="black" stroke="black" points="579.234,-172.223 568.753,-173.772 577.912,-179.097 579.234,-172.223"/>
</g>
<!-- [root] aws_route_table.web&#45;public&#45;rt -->
<g id="node3" class="node"><title>[root] aws_route_table.web&#45;public&#45;rt</title>
<polygon fill="none" stroke="black" points="904.74,-324 722.74,-324 722.74,-288 904.74,-288 904.74,-324"/>
<text text-anchor="middle" x="813.74" y="-302.3" font-family="Times,serif" font-size="14.00">aws_route_table.web&#45;public&#45;rt</text>
</g>
<!-- [root] aws_route_table.web&#45;public&#45;rt&#45;&gt;[root] aws_internet_gateway.gw&#45;gw -->
<g id="edge6" class="edge"><title>[root] aws_route_table.web&#45;public&#45;rt&#45;&gt;[root] aws_internet_gateway.gw&#45;gw</title>
<path fill="none" stroke="black" d="M829.313,-287.697C836.942,-279.22 846.263,-268.864 854.616,-259.583"/>
<polygon fill="black" stroke="black" points="857.258,-261.879 861.346,-252.104 852.055,-257.196 857.258,-261.879"/>
</g>
<!-- [root] aws_route_table_association.web&#45;public&#45;rt -->
<g id="node4" class="node"><title>[root] aws_route_table_association.web&#45;public&#45;rt</title>
<polygon fill="none" stroke="black" points="712.24,-396 463.24,-396 463.24,-360 712.24,-360 712.24,-396"/>
<text text-anchor="middle" x="587.74" y="-374.3" font-family="Times,serif" font-size="14.00">aws_route_table_association.web&#45;public&#45;rt</text>
</g>
<!-- [root] aws_route_table_association.web&#45;public&#45;rt&#45;&gt;[root] aws_route_table.web&#45;public&#45;rt -->
<g id="edge7" class="edge"><title>[root] aws_route_table_association.web&#45;public&#45;rt&#45;&gt;[root] aws_route_table.web&#45;public&#45;rt</title>
<path fill="none" stroke="black" d="M642.737,-359.966C674.726,-350.057 715.224,-337.514 748.778,-327.121"/>
<polygon fill="black" stroke="black" points="749.98,-330.413 758.496,-324.111 747.909,-323.726 749.98,-330.413"/>
</g>
<!-- [root] aws_route_table_association.web&#45;public&#45;rt&#45;&gt;[root] aws_subnet.public&#45;subnet -->
<g id="edge8" class="edge"><title>[root] aws_route_table_association.web&#45;public&#45;rt&#45;&gt;[root] aws_subnet.public&#45;subnet</title>
<path fill="none" stroke="black" d="M575.38,-359.697C569.507,-351.474 562.371,-341.483 555.898,-332.421"/>
<polygon fill="black" stroke="black" points="558.618,-330.207 549.957,-324.104 552.922,-334.276 558.618,-330.207"/>
</g>
<!-- [root] aws_security_group.sgweb&#45;&gt;[root] aws_vpc.my_vpc -->
<g id="edge9" class="edge"><title>[root] aws_security_group.sgweb&#45;&gt;[root] aws_vpc.my_vpc</title>
<path fill="none" stroke="black" d="M429.649,-215.876C443.898,-206.808 461.586,-195.552 476.975,-185.759"/>
<polygon fill="black" stroke="black" points="479.17,-188.511 485.727,-180.19 475.412,-182.606 479.17,-188.511"/>
</g>
<!-- [root] aws_subnet.public&#45;subnet&#45;&gt;[root] aws_vpc.my_vpc -->
<g id="edge10" class="edge"><title>[root] aws_subnet.public&#45;subnet&#45;&gt;[root] aws_vpc.my_vpc</title>
<path fill="none" stroke="black" d="M534.724,-287.871C530.464,-263.67 522.636,-219.211 517.563,-190.393"/>
<polygon fill="black" stroke="black" points="520.947,-189.431 515.766,-180.189 514.053,-190.645 520.947,-189.431"/>
</g>
<!-- [root] var.public_subnet_cidr -->
<g id="node11" class="node"><title>[root] var.public_subnet_cidr</title>
<ellipse fill="none" stroke="black" cx="654.74" cy="-234" rx="114.28" ry="18"/>
<text text-anchor="middle" x="654.74" y="-230.3" font-family="Times,serif" font-size="14.00">[root] var.public_subnet_cidr</text>
</g>
<!-- [root] aws_subnet.public&#45;subnet&#45;&gt;[root] var.public_subnet_cidr -->
<g id="edge11" class="edge"><title>[root] aws_subnet.public&#45;subnet&#45;&gt;[root] var.public_subnet_cidr</title>
<path fill="none" stroke="black" d="M566.361,-287.876C581.887,-278.587 601.252,-267.001 617.894,-257.045"/>
<polygon fill="black" stroke="black" points="620.033,-259.843 626.818,-251.706 616.439,-253.836 620.033,-259.843"/>
</g>
<!-- [root] provider.aws -->
<g id="node8" class="node"><title>[root] provider.aws</title>
<polygon fill="none" stroke="black" points="425.74,-108 345.807,-90 425.74,-72 505.673,-90 425.74,-108"/>
<text text-anchor="middle" x="425.74" y="-86.3" font-family="Times,serif" font-size="14.00">provider.aws</text>
</g>
<!-- [root] aws_vpc.my_vpc&#45;&gt;[root] provider.aws -->
<g id="edge12" class="edge"><title>[root] aws_vpc.my_vpc&#45;&gt;[root] provider.aws</title>
<path fill="none" stroke="black" d="M491.234,-143.697C478.851,-133.733 463.241,-121.173 450.367,-110.815"/>
<polygon fill="black" stroke="black" points="452.349,-107.917 442.363,-104.375 447.96,-113.371 452.349,-107.917"/>
</g>
<!-- [root] var.vpc_cidr -->
<g id="node12" class="node"><title>[root] var.vpc_cidr</title>
<ellipse fill="none" stroke="black" cx="600.74" cy="-90" rx="77.1866" ry="18"/>
<text text-anchor="middle" x="600.74" y="-86.3" font-family="Times,serif" font-size="14.00">[root] var.vpc_cidr</text>
</g>
<!-- [root] aws_vpc.my_vpc&#45;&gt;[root] var.vpc_cidr -->
<g id="edge13" class="edge"><title>[root] aws_vpc.my_vpc&#45;&gt;[root] var.vpc_cidr</title>
<path fill="none" stroke="black" d="M534.493,-143.697C545.824,-134.683 559.826,-123.545 572.034,-113.834"/>
<polygon fill="black" stroke="black" points="574.497,-116.347 580.144,-107.383 570.139,-110.869 574.497,-116.347"/>
</g>
<!-- [root] var.aws_region -->
<g id="node15" class="node"><title>[root] var.aws_region</title>
<ellipse fill="none" stroke="black" cx="425.74" cy="-18" rx="87.1846" ry="18"/>
<text text-anchor="middle" x="425.74" y="-14.3" font-family="Times,serif" font-size="14.00">[root] var.aws_region</text>
</g>
<!-- [root] provider.aws&#45;&gt;[root] var.aws_region -->
<g id="edge18" class="edge"><title>[root] provider.aws&#45;&gt;[root] var.aws_region</title>
<path fill="none" stroke="black" d="M425.74,-71.6966C425.74,-63.9827 425.74,-54.7125 425.74,-46.1124"/>
<polygon fill="black" stroke="black" points="429.24,-46.1043 425.74,-36.1043 422.24,-46.1044 429.24,-46.1043"/>
</g>
<!-- [root] meta.count&#45;boundary (count boundary fixup) -->
<g id="node13" class="node"><title>[root] meta.count&#45;boundary (count boundary fixup)</title>
<ellipse fill="none" stroke="black" cx="666.74" cy="-450" rx="193.066" ry="18"/>
<text text-anchor="middle" x="666.74" y="-446.3" font-family="Times,serif" font-size="14.00">[root] meta.count&#45;boundary (count boundary fixup)</text>
</g>
<!-- [root] meta.count&#45;boundary (count boundary fixup)&#45;&gt;[root] aws_instance.wb -->
<g id="edge14" class="edge"><title>[root] meta.count&#45;boundary (count boundary fixup)&#45;&gt;[root] aws_instance.wb</title>
<path fill="none" stroke="black" d="M595.429,-433.203C541.39,-421.233 467.754,-404.921 415.415,-393.327"/>
<polygon fill="black" stroke="black" points="416.092,-389.892 405.571,-391.146 414.578,-396.726 416.092,-389.892"/>
</g>
<!-- [root] meta.count&#45;boundary (count boundary fixup)&#45;&gt;[root] aws_route_table_association.web&#45;public&#45;rt -->
<g id="edge15" class="edge"><title>[root] meta.count&#45;boundary (count boundary fixup)&#45;&gt;[root] aws_route_table_association.web&#45;public&#45;rt</title>
<path fill="none" stroke="black" d="M647.616,-432.055C637.695,-423.264 625.412,-412.38 614.558,-402.763"/>
<polygon fill="black" stroke="black" points="616.767,-400.044 606.961,-396.032 612.125,-405.283 616.767,-400.044"/>
</g>
<!-- [root] provider.aws (close) -->
<g id="node14" class="node"><title>[root] provider.aws (close)</title>
<ellipse fill="none" stroke="black" cx="350.74" cy="-450" rx="105.082" ry="18"/>
<text text-anchor="middle" x="350.74" y="-446.3" font-family="Times,serif" font-size="14.00">[root] provider.aws (close)</text>
</g>
<!-- [root] provider.aws (close)&#45;&gt;[root] aws_instance.wb -->
<g id="edge16" class="edge"><title>[root] provider.aws (close)&#45;&gt;[root] aws_instance.wb</title>
<path fill="none" stroke="black" d="M350.74,-431.697C350.74,-423.983 350.74,-414.712 350.74,-406.112"/>
<polygon fill="black" stroke="black" points="354.24,-406.104 350.74,-396.104 347.24,-406.104 354.24,-406.104"/>
</g>
<!-- [root] provider.aws (close)&#45;&gt;[root] aws_route_table_association.web&#45;public&#45;rt -->
<g id="edge17" class="edge"><title>[root] provider.aws (close)&#45;&gt;[root] aws_route_table_association.web&#45;public&#45;rt</title>
<path fill="none" stroke="black" d="M401.002,-434.155C435.677,-423.913 482.177,-410.179 520.101,-398.978"/>
<polygon fill="black" stroke="black" points="521.448,-402.229 530.047,-396.04 519.465,-395.516 521.448,-402.229"/>
</g>
<!-- [root] provisioner.file (close) -->
<g id="node16" class="node"><title>[root] provisioner.file (close)</title>
<ellipse fill="none" stroke="black" cx="113.74" cy="-450" rx="113.98" ry="18"/>
<text text-anchor="middle" x="113.74" y="-446.3" font-family="Times,serif" font-size="14.00">[root] provisioner.file (close)</text>
</g>
<!-- [root] provisioner.file (close)&#45;&gt;[root] aws_instance.wb -->
<g id="edge19" class="edge"><title>[root] provisioner.file (close)&#45;&gt;[root] aws_instance.wb</title>
<path fill="none" stroke="black" d="M164.874,-433.897C200.349,-423.419 247.887,-409.378 286.006,-398.12"/>
<polygon fill="black" stroke="black" points="287.385,-401.362 295.984,-395.173 285.402,-394.649 287.385,-401.362"/>
</g>
<!-- [root] root -->
<g id="node17" class="node"><title>[root] root</title>
<ellipse fill="none" stroke="black" cx="350.74" cy="-522" rx="47.3916" ry="18"/>
<text text-anchor="middle" x="350.74" y="-518.3" font-family="Times,serif" font-size="14.00">[root] root</text>
</g>
<!-- [root] root&#45;&gt;[root] meta.count&#45;boundary (count boundary fixup) -->
<g id="edge20" class="edge"><title>[root] root&#45;&gt;[root] meta.count&#45;boundary (count boundary fixup)</title>
<path fill="none" stroke="black" d="M390.762,-512.134C439.552,-501.326 523.214,-482.794 585.666,-468.959"/>
<polygon fill="black" stroke="black" points="586.492,-472.361 595.499,-466.781 584.978,-465.527 586.492,-472.361"/>
</g>
<!-- [root] root&#45;&gt;[root] provider.aws (close) -->
<g id="edge21" class="edge"><title>[root] root&#45;&gt;[root] provider.aws (close)</title>
<path fill="none" stroke="black" d="M350.74,-503.697C350.74,-495.983 350.74,-486.712 350.74,-478.112"/>
<polygon fill="black" stroke="black" points="354.24,-478.104 350.74,-468.104 347.24,-478.104 354.24,-478.104"/>
</g>
<!-- [root] root&#45;&gt;[root] provisioner.file (close) -->
<g id="edge22" class="edge"><title>[root] root&#45;&gt;[root] provisioner.file (close)</title>
<path fill="none" stroke="black" d="M314.487,-510.292C277.357,-499.326 218.969,-482.08 174.714,-469.009"/>
<polygon fill="black" stroke="black" points="175.512,-465.596 164.931,-466.12 173.53,-472.309 175.512,-465.596"/>
</g>
</g>
</svg>
